<?xml version="1.0" encoding="utf-8"?>
<!-- Generator: Adobe Illustrator 16.0.3, SVG Export Plug-In . SVG Version: 6.00 Build 0)  -->
<!DOCTYPE svg PUBLIC "-//W3C//DTD SVG 1.1//EN" "http://www.w3.org/Graphics/SVG/1.1/DTD/svg11.dtd">
<svg version="1.1" id="Layer_1" xmlns="http://www.w3.org/2000/svg" xmlns:xlink="http://www.w3.org/1999/xlink" x="0px" y="0px"
	 width="179.333px" height="89.983px" viewBox="0 0 179.333 89.983" enable-background="new 0 0 179.333 89.983"
	 xml:space="preserve">
<path fill="#4F4F4F" d="M70.709,73.169h-7.25v-0.383h7.25v-9.539h-7.25v-0.572h7.25v-14.31h-6.296v-0.382h6.296v-9.539h-7.345
	v-0.572h7.345v-14.31h-7.345v-0.382h7.345v-9.539h-7.345v-0.572h7.345V0.096h0.477v12.974h9.444V0.096h0.478v12.974h24.326V0.096
	h0.476v12.974h9.636V0.096h0.381v12.974h5.247v0.572h-5.247v9.539h5.247v0.382h-5.247v39.112h7.25v0.572h-7.25v9.539h7.25v0.383
	h-7.25h-0.381h-9.636h-0.476H81.107H80.63h-9.444H70.709z M71.186,18.793v0.668l9.444-5.533v-0.286h-0.572L71.186,18.793z
	 M71.186,17.648v0.572l7.917-4.579H77.96L71.186,17.648z M71.186,16.408v0.667l5.819-3.434h-1.049L71.186,16.408z M71.186,15.263
	v0.573l3.816-2.194h-1.145L71.186,15.263z M71.186,14.022v0.669l1.718-1.05h-1.049L71.186,14.022z M71.186,20.033v0.572l9.444-5.438
	V14.5L71.186,20.033z M71.186,21.178v0.668l9.444-5.533v-0.668L71.186,21.178z M71.186,22.418v0.572l9.444-5.438v-0.668
	L71.186,22.418z M71.186,29l9.349-5.438h-1.145l-8.205,4.771V29z M71.186,27.76l7.25-4.197h-1.049l-6.201,3.625V27.76z
	 M71.186,26.615l5.248-3.053h-1.146l-4.102,2.385V26.615z M71.186,25.375l3.148-1.813h-1.049l-2.099,1.24V25.375z M71.186,24.23
	l1.145-0.668h-1.145V24.23z M71.186,30.145l9.444-5.438V24.04l-9.444,5.533V30.145z M71.186,31.385l9.444-5.533V25.28l-9.444,5.438
	V31.385z M71.186,32.53l9.444-5.438v-0.667l-9.444,5.532V32.53z M71.186,33.771l9.444-5.533v-0.572l-9.444,5.437V33.771z
	 M71.186,34.915l9.444-5.438V28.81l-9.444,5.532V34.915z M71.186,36.154l9.444-5.532v-0.573l-9.444,5.438V36.154z M71.186,37.299
	l9.444-5.437v-0.668l-9.444,5.533V37.299z M72.331,37.872l8.299-4.865v-0.572l-9.444,5.438H72.331z M71.186,44.454l9.444-5.438
	v-0.572h-0.19l-9.253,5.438V44.454z M71.186,43.31l8.395-4.865h-1.049l-7.346,4.197V43.31z M71.186,42.069l6.392-3.625h-1.144
	l-5.248,3.053V42.069z M71.186,40.925l4.293-2.48h-1.145l-3.148,1.813V40.925z M71.186,39.685l2.195-1.24h-1.05l-1.145,0.668V39.685
	z M71.377,38.444h-0.191v0.096L71.377,38.444z M71.186,45.694l9.444-5.533v-0.667l-9.444,5.532V45.694z M71.186,46.839l9.444-5.438
	v-0.668l-9.444,5.533V46.839z M71.186,47.983h0.191l9.252-5.437v-0.669l-9.444,5.533V47.983z M71.186,53.421v0.573l9.444-5.438
	v-0.191h-0.763L71.186,53.421z M71.186,52.181v0.669l7.727-4.484h-1.145L71.186,52.181z M71.186,51.036v0.572l5.628-3.243h-1.049
	L71.186,51.036z M71.186,49.797v0.667l3.625-2.099h-1.145L71.186,49.797z M71.186,48.651v0.572l1.526-0.858h-1.049L71.186,48.651z
	 M71.186,55.233l9.444-5.532v-0.573l-9.444,5.438V55.233z M71.186,56.379l9.444-5.438v-0.668l-9.444,5.533V56.379z M71.186,57.618
	l9.444-5.532v-0.572l-9.444,5.438V57.618z M71.186,58.764l9.444-5.438v-0.668l-9.444,5.533V58.764z M71.186,60.004l9.444-5.533
	v-0.572l-9.444,5.438V60.004z M71.186,61.148l9.444-5.438v-0.668l-9.444,5.532V61.148z M71.186,62.389l9.444-5.533v-0.572
	l-9.444,5.438V62.389z M71.186,67.73v0.572l8.872-5.056h-1.145L71.186,67.73z M71.186,66.49v0.668l6.774-3.911h-1.05L71.186,66.49z
	 M71.186,65.346v0.572l4.675-2.671h-1.049L71.186,65.346z M71.186,64.105v0.668l2.671-1.526h-1.145L71.186,64.105z M71.186,63.247
	v0.286l0.477-0.286H71.186z M71.186,68.876v0.667l9.444-5.532v-0.573L71.186,68.876z M71.186,70.116v0.571l9.444-5.438v-0.667
	L71.186,70.116z M71.186,71.26v0.669l9.444-5.534v-0.571L71.186,71.26z M71.186,72.5v0.286h0.477l8.967-5.15v-0.668L71.186,72.5z
	 M72.712,62.675l7.917-4.579v-0.668l-8.967,5.247H72.712z M72.999,23.181l7.631-4.483V18.03l-8.775,5.15H72.999z M73.381,47.983
	l7.249-4.197v-0.668l-8.299,4.865H73.381z M72.618,72.786h1.144l6.868-4.006v-0.668L72.618,72.786z M74.334,37.872l6.295-3.625
	v-0.668l-7.249,4.293H74.334z M74.812,62.675l5.818-3.435v-0.571l-6.963,4.006H74.812z M75.002,23.181l5.628-3.243v-0.667
	l-6.677,3.91H75.002z M75.479,47.983l5.151-3.053v-0.667l-6.295,3.72H75.479z M74.621,72.786h1.145l4.865-2.861v-0.668
	L74.621,72.786z M76.434,37.872l4.196-2.48v-0.572l-5.247,3.053H76.434z M76.91,62.675l3.72-2.194v-0.668l-4.865,2.862H76.91z
	 M77.101,23.181l3.529-2.098v-0.668l-4.674,2.766H77.101z M77.482,47.983l3.147-1.813v-0.667l-4.196,2.479H77.482z M76.719,72.786
	h1.145l2.766-1.621v-0.668L76.719,72.786z M78.532,37.872l2.098-1.24v-0.668l-3.243,1.908H78.532z M78.913,62.675l1.717-1.049
	v-0.573l-2.766,1.622H78.913z M79.104,23.181l1.526-0.857v-0.669l-2.575,1.526H79.104z M79.581,47.983l1.049-0.668v-0.667
	l-2.194,1.335H79.581z M78.818,72.786h1.049l0.763-0.477v-0.572L78.818,72.786z M80.535,37.872l0.095-0.096v-0.572l-1.049,0.668
	H80.535z M80.63,62.675v-0.478l-0.763,0.478H80.63z M80.63,23.181v-0.286l-0.572,0.286H80.63z M80.63,47.983v-0.095l-0.095,0.095
	H80.63z M81.107,22.608v0.572h0.095l16.408-9.539h-1.049L81.107,22.608z M81.107,21.368v0.668l14.5-8.395h-1.145L81.107,21.368z
	 M81.107,20.224v0.668l12.401-7.25h-1.145L81.107,20.224z M81.107,18.983v0.668l10.302-6.01h-1.049L81.107,18.983z M81.107,17.839
	v0.668l8.3-4.865h-1.146L81.107,17.839z M81.107,16.599v0.668l6.201-3.625h-1.049L81.107,16.599z M81.107,15.358v0.668l4.197-2.385
	H84.16L81.107,15.358z M81.107,14.214v0.668l2.099-1.24h-1.145L81.107,14.214z M81.107,37.872h24.326v-14.31H81.107V37.872z
	 M81.107,47.983h0.477l16.408-9.539h-1.049l-15.836,9.253V47.983z M81.107,47.126l14.881-8.682h-1.145l-13.737,8.013V47.126z
	 M81.107,45.885l12.783-7.44h-1.05l-11.733,6.773V45.885z M81.107,44.74l10.78-6.296h-1.145l-9.635,5.629V44.74z M81.107,43.5
	l8.681-5.056h-1.049l-7.631,4.389V43.5z M81.107,42.355l6.678-3.911h-1.145l-5.533,3.243V42.355z M81.107,41.115l4.579-2.671h-1.145
	l-3.434,2.003V41.115z M81.107,39.876l2.48-1.432h-1.049l-1.431,0.858V39.876z M81.584,38.444h-0.477v0.286L81.584,38.444z
	 M81.107,62.675h24.326v-14.31H81.107V62.675z M81.107,72.596v0.19h0.858l16.503-9.539h-1.145L81.107,72.596z M81.107,71.451v0.572
	l15.263-8.776h-1.049L81.107,71.451z M81.107,70.211v0.668l13.259-7.632h-1.144L81.107,70.211z M81.107,69.066v0.667l11.161-6.486
	h-1.145L81.107,69.066z M81.107,67.826v0.668l9.063-5.247h-1.05L81.107,67.826z M81.107,66.681v0.669l7.06-4.103h-1.145
	L81.107,66.681z M81.107,65.537v0.572l4.96-2.862h-1.049L81.107,65.537z M81.107,64.297v0.667l2.958-1.717h-1.146L81.107,64.297z
	 M81.107,63.247v0.477l0.858-0.477H81.107z M99.709,13.642h-1.144l-16.503,9.539h1.145L99.709,13.642z M100.091,38.444h-1.146
	l-16.407,9.539h1.049L100.091,38.444z M83.969,72.786l16.503-9.539h-1.049l-16.503,9.539H83.969z M85.209,23.181l16.503-9.539
	h-1.049L84.16,23.181H85.209z M85.686,47.983l16.504-9.539h-1.145l-16.503,9.539H85.686z M86.068,72.786l16.503-9.539h-1.145
	l-16.504,9.539H86.068z M87.308,23.181l16.503-9.539h-1.145l-16.503,9.539H87.308z M87.689,47.983l16.504-9.539h-1.049
	l-16.503,9.539H87.689z M88.167,72.786l16.503-9.539h-1.146l-16.503,9.539H88.167z M89.407,23.181l16.026-9.253v-0.286h-0.668
	l-16.503,9.539H89.407z M89.788,47.983l15.646-9.063v-0.477h-0.287l-16.503,9.539H89.788z M90.17,72.786l15.263-8.871v-0.572
	l-16.313,9.443H90.17z M91.41,23.181l14.024-8.107v-0.669l-15.073,8.776H91.41z M91.792,47.983l13.642-7.822v-0.667l-14.691,8.489
	H91.792z M92.269,72.786l13.165-7.632v-0.667l-14.31,8.299H92.269z M93.509,23.181l11.925-6.868v-0.668l-13.069,7.536H93.509z
	 M93.891,47.983l11.543-6.677v-0.668l-12.688,7.345H93.891z M94.272,72.786l11.162-6.486v-0.572l-12.21,7.059H94.272z
	 M95.512,23.181l9.921-5.724V16.79l-10.971,6.391H95.512z M95.989,47.983l9.445-5.437v-0.669l-10.589,6.105H95.989z M96.371,72.786
	l9.063-5.246v-0.668l-10.208,5.914H96.371z M97.611,23.181l7.823-4.579V18.03l-8.968,5.15H97.611z M97.992,47.983l7.441-4.292
	v-0.669l-8.49,4.961H97.992z M98.469,72.786l6.964-4.102v-0.572l-8.109,4.674H98.469z M99.614,23.181l5.819-3.339v-0.667
	l-6.869,4.006H99.614z M100.091,47.983l5.342-3.053v-0.667l-6.488,3.72H100.091z M105.434,69.925v-0.572l-6.011,3.434h1.049
	L105.434,69.925z M101.712,23.181l3.721-2.193v-0.572l-4.866,2.766H101.712z M102.094,47.983l3.339-1.908v-0.667l-4.389,2.575
	H102.094z M102.571,72.786l2.862-1.621v-0.668l-4.007,2.289H102.571z M103.812,23.181l1.622-0.953V21.56l-2.767,1.621H103.812z
	 M104.193,47.983l1.24-0.668v-0.667l-2.385,1.335H104.193z M104.575,72.786l0.859-0.477v-0.667l-1.909,1.144H104.575z
	 M105.434,23.181v-0.382l-0.668,0.382H105.434z M105.434,47.983v-0.19l-0.287,0.19H105.434z M105.91,18.983v0.572l9.636-5.628
	v-0.286h-0.477L105.91,18.983z M105.91,17.744v0.667l8.205-4.77h-1.145L105.91,17.744z M105.91,16.504v0.667l6.105-3.529h-1.049
	L105.91,16.504z M105.91,15.358v0.668l4.103-2.385h-1.146L105.91,15.358z M105.91,14.118v0.668l2.004-1.145h-1.145L105.91,14.118z
	 M105.91,20.128v0.669l9.636-5.629V14.5L105.91,20.128z M105.91,21.272v0.669l9.636-5.629V15.74L105.91,21.272z M105.91,22.514
	v0.572l9.636-5.533v-0.668L105.91,22.514z M105.91,47.983h6.105v0.382h-6.105v14.31h9.636V23.563h-9.636v14.31h6.01v0.572h-6.01
	V47.983z M105.91,67.826v0.668l8.968-5.247h-1.049L105.91,67.826z M105.91,66.586v0.668l6.964-4.007h-1.145L105.91,66.586z
	 M105.91,65.441v0.572l4.866-2.767h-1.05L105.91,65.441z M105.91,64.201v0.667l2.862-1.621h-1.145L105.91,64.201z M105.91,63.247
	v0.381l0.763-0.381H105.91z M115.545,64.011v-0.573l-9.636,5.629v0.572L115.545,64.011z M105.91,70.879l9.636-5.629v-0.667
	l-9.636,5.628V70.879z M105.91,72.023l9.636-5.629v-0.571l-9.636,5.628V72.023z M105.91,72.786h0.763l8.873-5.15v-0.668
	l-9.636,5.628V72.786z M106.769,23.181h1.145l7.632-4.483v-0.572L106.769,23.181z M108.677,72.786l6.869-4.006v-0.573l-7.918,4.579
	H108.677z M108.867,23.181h1.05l5.628-3.243v-0.667L108.867,23.181z M110.776,72.786l4.77-2.766v-0.668l-5.915,3.434H110.776z
	 M110.871,23.181h1.145l3.53-2.098V20.51L110.871,23.181z M112.874,72.786l2.671-1.621v-0.572l-3.816,2.193H112.874z M112.97,23.181
	h1.145l1.431-0.857v-0.669L112.97,23.181z M114.877,72.786l0.668-0.381v-0.668l-1.717,1.049H114.877z M115.068,23.181h0.477v-0.286
	L115.068,23.181z"/>
<path fill="#4F4F4F" d="M134.307,73.169h-9.539h-0.382h-6.296v-0.383h6.296V48.365h-6.296v-0.382h6.296v-9.539h-7.345v-0.572h7.345
	v-24.23h-7.345v-0.572h7.345V0h0.382v13.069h9.539V0h0.573v13.069h28.047V0h0.571v13.069h9.54V0h0.382v13.069h5.246v0.572h-5.246
	v24.23h5.819v0.572h-5.819v9.539h5.914v0.382h-5.914v24.421h5.342v0.383h-5.342v14.213h-0.382V73.169h-9.54v14.213h-0.571V73.169
	h-28.047H134.307z M124.768,19.461l9.539-5.533v-0.286h-0.476l-9.063,5.151V19.461z M124.768,18.315l8.204-4.674h-1.24l-6.963,4.007
	V18.315z M124.768,17.075l6.105-3.434h-1.146l-4.96,2.767V17.075z M124.768,15.931l4.102-2.289h-1.24l-2.861,1.621V15.931z
	 M124.768,14.691l2.003-1.05h-1.24l-0.763,0.381V14.691z M124.768,20.701l9.539-5.533V14.5l-9.539,5.533V20.701z M124.768,21.846
	l9.539-5.533v-0.668l-9.539,5.533V21.846z M124.768,23.086l9.539-5.533v-0.668l-9.539,5.533V23.086z M124.768,24.23l9.539-5.533
	V18.03l-9.539,5.532V24.23z M124.768,25.471l9.539-5.533v-0.667l-9.539,5.532V25.471z M124.768,26.615l9.539-5.532v-0.668
	l-9.539,5.532V26.615z M124.768,27.855l9.539-5.532v-0.669l-9.539,5.533V27.855z M124.768,29l9.539-5.532v-0.669l-9.539,5.534V29z
	 M124.768,30.24l9.539-5.533V24.04l-9.539,5.533V30.24z M124.768,31.385l9.539-5.533v-0.667l-9.539,5.533V31.385z M124.768,32.626
	l9.539-5.534v-0.667l-9.539,5.532V32.626z M124.768,33.771l9.539-5.533v-0.668l-9.539,5.532V33.771z M124.768,35.01l9.539-5.532
	V28.81l-9.539,5.532V35.01z M124.768,36.154l9.539-5.532v-0.668l-9.539,5.533V36.154z M124.768,37.395l9.539-5.532v-0.668
	l-9.539,5.533V37.395z M125.912,37.872l8.395-4.865v-0.668l-9.539,5.533H125.912z M124.768,44.55l9.539-5.533v-0.572h-0.095
	l-9.444,5.438V44.55z M124.768,43.31l8.585-4.865h-1.24l-7.345,4.197V43.31z M124.768,42.165l6.582-3.721h-1.239l-5.342,3.053
	V42.165z M124.768,40.925l4.483-2.48h-1.24l-3.243,1.813V40.925z M124.768,39.78l2.384-1.336h-1.145l-1.24,0.668V39.78z
	 M125.149,38.444h-0.381v0.096L125.149,38.444z M124.768,45.694l9.539-5.533v-0.667l-9.539,5.532V45.694z M124.768,46.935
	l9.539-5.533v-0.668l-9.539,5.533V46.935z M124.768,47.983h0.381l9.158-5.437v-0.669l-9.539,5.533V47.983z M124.768,53.421v0.669
	l9.539-5.533v-0.191h-0.954L124.768,53.421z M124.768,52.181v0.669l7.727-4.484h-1.145L124.768,52.181z M124.768,51.036v0.668
	l5.723-3.339h-1.239L124.768,51.036z M124.768,49.797v0.667l3.625-2.099h-1.145L124.768,49.797z M124.768,48.651v0.668l1.621-0.954
	h-1.24L124.768,48.651z M134.307,49.701v-0.668l-9.539,5.533v0.667L134.307,49.701z M134.307,50.941v-0.668l-9.539,5.533v0.667
	L134.307,50.941z M134.307,52.086v-0.668l-9.539,5.533v0.667L134.307,52.086z M134.307,53.326v-0.668l-9.539,5.533v0.668
	L134.307,53.326z M134.307,54.471v-0.668l-9.539,5.533v0.668L134.307,54.471z M134.307,55.711v-0.668l-9.539,5.532v0.669
	L134.307,55.711z M134.307,56.855v-0.668l-9.539,5.533v0.668L134.307,56.855z M134.307,58.096v-0.668l-9.539,5.533v0.667
	L134.307,58.096z M134.307,59.24v-0.667l-9.539,5.532v0.668L134.307,59.24z M134.307,60.48v-0.668l-9.539,5.533v0.668L134.307,60.48
	z M134.307,61.626v-0.668l-9.539,5.532v0.668L134.307,61.626z M134.307,62.865v-0.668l-9.539,5.533v0.668L134.307,62.865z
	 M134.307,64.011v-0.668l-9.539,5.533v0.667L134.307,64.011z M134.307,65.25v-0.667l-9.539,5.533v0.667L134.307,65.25z
	 M134.307,66.395v-0.667l-9.539,5.532v0.669L134.307,66.395z M134.307,67.636v-0.668l-9.539,5.532v0.286h0.763L134.307,67.636z
	 M127.152,47.983l7.154-4.197v-0.668l-8.299,4.865H127.152z M134.307,68.78v-0.668l-7.917,4.674h1.24L134.307,68.78z
	 M128.011,37.872l6.295-3.625v-0.668l-7.536,4.293H128.011z M129.251,47.983l5.055-3.053v-0.667l-6.295,3.72H129.251z
	 M134.307,70.021v-0.668l-5.818,3.434h1.145L134.307,70.021z M130.11,37.872l4.196-2.48v-0.668l-5.437,3.148H130.11z M131.35,47.983
	l2.957-1.813v-0.667l-4.196,2.479H131.35z M134.307,71.165v-0.668l-3.816,2.289h1.241L134.307,71.165z M132.113,37.872l2.194-1.24
	v-0.668l-3.338,1.908H132.113z M133.353,47.983l0.954-0.668v-0.667l-2.194,1.335H133.353z M134.307,72.405v-0.668l-1.717,1.049
	h1.145L134.307,72.405z M134.212,37.872l0.095-0.096v-0.668l-1.335,0.764H134.212z M134.307,47.983v-0.095l-0.095,0.095H134.307z
	 M134.879,37.872h28.047v-24.23h-28.047V37.872z M134.879,47.983h0.573l16.408-9.539h-1.145l-15.836,9.157V47.983z M134.879,47.126
	l14.978-8.682h-1.241l-13.737,7.918V47.126z M134.879,45.885l12.878-7.44h-1.145l-11.733,6.773V45.885z M134.879,44.74l10.875-6.296
	h-1.24l-9.635,5.533V44.74z M134.879,43.5l8.776-5.056h-1.24l-7.536,4.389V43.5z M134.879,42.355l6.678-3.911h-1.146l-5.533,3.147
	V42.355z M134.879,41.115l4.675-2.671h-1.24l-3.435,2.003V41.115z M134.879,39.971l2.576-1.526h-1.145l-1.431,0.763V39.971z
	 M135.452,38.444h-0.573v0.286L135.452,38.444z M134.879,72.786h28.047V48.365h-28.047V72.786z M137.455,47.983l16.503-9.539h-1.24
	l-16.408,9.539H137.455z M139.554,47.983l16.503-9.539h-1.24l-16.503,9.539H139.554z M141.558,47.983l16.502-9.539h-1.239
	l-16.409,9.539H141.558z M143.656,47.983l16.504-9.539h-1.24l-16.504,9.539H143.656z M145.754,47.983l16.408-9.539h-1.146
	l-16.502,9.539H145.754z M162.926,39.112v-0.668l-16.313,9.539h1.145L162.926,39.112z M162.926,40.352v-0.763l-14.31,8.395h1.241
	L162.926,40.352z M162.926,41.497v-0.668l-12.211,7.154h1.145L162.926,41.497z M162.926,42.737v-0.764l-10.208,6.01h1.24
	L162.926,42.737z M162.926,43.882v-0.668l-8.109,4.77h1.24L162.926,43.882z M162.926,45.122v-0.764l-6.105,3.625h1.239
	L162.926,45.122z M162.926,46.267V45.6l-4.007,2.384h1.24L162.926,46.267z M162.926,47.507v-0.763l-1.909,1.239h1.146
	L162.926,47.507z M173.038,14.214v-0.572h-0.096l-9.444,5.438v0.668L173.038,14.214z M170.843,13.642l-7.346,4.293v0.667l8.586-4.96
	H170.843z M163.498,16.694v0.668l6.487-3.721h-1.145L163.498,16.694z M163.498,15.549v0.669l4.483-2.576h-1.239L163.498,15.549z
	 M163.498,14.31v0.668l2.386-1.336h-1.145C164.357,13.928,163.879,14.022,163.498,14.31z M163.498,13.642v0.19l0.382-0.19H163.498z
	 M173.038,15.454v-0.668l-9.54,5.533v0.668L173.038,15.454z M173.038,16.599v-0.668l-9.54,5.533v0.668L173.038,16.599z
	 M173.038,17.839v-0.668l-9.54,5.533v0.668L173.038,17.839z M173.038,18.983v-0.668l-9.54,5.533v0.668L173.038,18.983z
	 M173.038,20.224v-0.668l-9.54,5.533v0.668L173.038,20.224z M173.038,21.368v-0.667l-9.54,5.532v0.668L173.038,21.368z
	 M173.038,22.608v-0.667l-9.54,5.532v0.668L173.038,22.608z M173.038,23.754v-0.668l-9.54,5.532v0.668L173.038,23.754z
	 M173.038,24.994v-0.669l-9.54,5.533v0.668L173.038,24.994z M173.038,26.139v-0.668l-9.54,5.533v0.667L173.038,26.139z
	 M173.038,27.378v-0.667l-9.54,5.533v0.667L173.038,27.378z M173.038,28.522v-0.667l-9.54,5.533v0.668L173.038,28.522z
	 M173.038,29.764v-0.668l-9.54,5.532v0.669L173.038,29.764z M173.038,30.908V30.24l-9.54,5.532v0.669L173.038,30.908z
	 M173.038,32.148V31.48l-9.54,5.533v0.667L173.038,32.148z M171.321,38.444l-7.823,4.483v0.668l8.967-5.151H171.321z
	 M169.222,38.444l-5.725,3.339v0.668l6.965-4.007H169.222z M167.123,38.444l-3.625,2.099v0.668l4.865-2.767H167.123z M165.12,38.444
	l-1.622,0.954v0.667l2.768-1.621H165.12z M163.498,38.444v0.381l0.764-0.381H163.498z M173.038,38.635l-9.54,5.533v0.668l9.54-5.533
	V38.635z M173.038,39.78l-9.54,5.532v0.668l9.54-5.533V39.78z M173.038,41.021l-9.54,5.532v0.668l9.54-5.533V41.021z
	 M173.038,42.165l-9.54,5.532v0.286h0.764l8.776-5.15V42.165z M173.038,48.365h-0.478l-9.063,5.342v0.669l9.54-5.533V48.365z
	 M170.462,48.365l-6.965,4.103v0.667l8.204-4.77H170.462z M168.363,48.365l-4.865,2.958v0.667l6.105-3.625H168.363z M166.36,48.365
	l-2.862,1.718v0.667l4.008-2.385H166.36z M164.261,48.365l-0.764,0.572v0.668l2.004-1.24H164.261z M173.038,49.319l-9.54,5.533
	v0.668l9.54-5.533V49.319z M173.038,50.56l-9.54,5.533v0.667l9.54-5.532V50.56z M173.038,51.704l-9.54,5.533v0.668l9.54-5.533
	V51.704z M173.038,52.944l-9.54,5.533v0.667l9.54-5.532V52.944z M173.038,54.09l-9.54,5.532v0.668l9.54-5.533V54.09z
	 M173.038,55.329l-9.54,5.533v0.668l9.54-5.533V55.329z M173.038,56.474l-9.54,5.533v0.668l9.54-5.532V56.474z M173.038,57.714
	l-9.54,5.533v0.668l9.54-5.533V57.714z M173.038,58.859l-9.54,5.532v0.668l9.54-5.533V58.859z M173.038,60.1l-9.54,5.532V66.3
	l9.54-5.533V60.1z M173.038,61.244l-9.54,5.532v0.668l9.54-5.533V61.244z M173.038,62.484l-9.54,5.532v0.668l9.54-5.533V62.484z
	 M173.038,63.628l-9.54,5.533v0.668l9.54-5.532V63.628z M173.038,64.868l-9.54,5.534v0.667l9.54-5.532V64.868z M173.038,66.014
	l-9.54,5.533v0.667l9.54-5.533V66.014z M173.038,67.254l-9.54,5.532h1.146l8.395-4.865V67.254z M173.038,33.293v-0.667l-9.158,5.246
	h1.145L173.038,33.293z M173.038,43.404l-7.918,4.579h1.146l6.772-3.91V43.404z M173.038,68.398l-7.536,4.388h1.24l6.296-3.72
	V68.398z M173.038,34.533v-0.668l-7.154,4.007h1.239L173.038,34.533z M173.038,44.55l-5.915,3.434h1.24l4.675-2.766V44.55z
	 M173.038,69.639l-5.438,3.147h1.145l4.293-2.479V69.639z M173.038,35.678V35.01l-5.057,2.862h1.241L173.038,35.678z M173.038,45.79
	l-3.815,2.193h1.24l2.575-1.526V45.79z M173.038,70.783l-3.435,2.003h1.24l2.194-1.335V70.783z M173.038,36.918V36.25l-2.957,1.622
	h1.145L173.038,36.918z M173.038,46.935l-1.717,1.049h1.144l0.573-0.382V46.935z M173.038,72.023l-1.336,0.763h1.24l0.096-0.095
	V72.023z M173.038,37.872v-0.478l-0.954,0.478H173.038z"/>
<g>
	<g>
		<path fill="#00807D" d="M45.574,76.283c0.497,0.655,0.853,1.357,1.068,2.106c0.214,0.75,0.322,1.521,0.322,2.314
			c0,2.343-0.679,4.116-2.035,5.318c-1.357,1.203-3.284,1.805-5.782,1.805h-5.279v-3.174h5.541c0.658,0,1.219-0.095,1.683-0.284
			c0.463-0.188,0.842-0.456,1.138-0.803c0.295-0.346,0.51-0.759,0.645-1.237s0.202-1.002,0.202-1.568s-0.071-1.089-0.212-1.568
			c-0.141-0.479-0.359-0.891-0.654-1.237c-0.296-0.347-0.675-0.62-1.139-0.822c-0.463-0.201-1.018-0.302-1.662-0.302h-5.541v-3.175
			h4.997c0.685,0,1.34,0.032,1.964,0.095c0.625,0.063,1.215,0.189,1.773,0.378c0.557,0.189,1.085,0.457,1.582,0.803
			C44.68,75.278,45.144,75.729,45.574,76.283z"/>
		<path fill="#00807D" d="M56.212,73.656h8.361v3.175h-4.674v2.21h2.478v3.193h-2.478v2.419h4.674v3.174h-8.361V73.656z"/>
		<path fill="#00807D" d="M79.019,87.827c-0.738,0-1.427-0.091-2.064-0.274c-0.639-0.182-1.196-0.453-1.672-0.812
			c-0.477-0.359-0.85-0.81-1.118-1.352c-0.269-0.541-0.403-1.178-0.403-1.908v-0.416h3.687c0,0.228,0.03,0.451,0.091,0.671
			c0.06,0.221,0.151,0.419,0.272,0.596s0.278,0.318,0.473,0.425c0.194,0.107,0.426,0.161,0.695,0.161
			c0.389,0,0.725-0.126,1.007-0.378c0.282-0.252,0.423-0.567,0.423-0.945c0-0.227-0.043-0.415-0.13-0.566s-0.205-0.283-0.353-0.397
			c-0.148-0.113-0.316-0.21-0.504-0.292c-0.188-0.082-0.383-0.161-0.584-0.236c-0.229-0.101-0.45-0.189-0.665-0.265
			c-0.215-0.076-0.43-0.157-0.645-0.246c-0.47-0.188-0.92-0.399-1.35-0.633c-0.43-0.232-0.806-0.504-1.128-0.813
			s-0.581-0.664-0.776-1.067c-0.195-0.402-0.292-0.869-0.292-1.398c0-0.642,0.147-1.212,0.443-1.709
			c0.295-0.498,0.685-0.917,1.169-1.257c0.483-0.34,1.027-0.602,1.632-0.784c0.604-0.183,1.222-0.274,1.854-0.274
			c0.711,0,1.43,0.13,2.155,0.388c0.726,0.259,1.323,0.64,1.793,1.144c0.363,0.44,0.604,0.869,0.726,1.284
			c0.121,0.416,0.194,0.895,0.221,1.437h-3.687c-0.041-0.391-0.155-0.712-0.343-0.964s-0.517-0.378-0.987-0.378
			c-0.336,0-0.638,0.098-0.907,0.293c-0.269,0.195-0.402,0.456-0.402,0.784c0,0.227,0.053,0.422,0.161,0.586
			c0.094,0.139,0.269,0.28,0.524,0.425c0.255,0.145,0.53,0.286,0.826,0.425c0.296,0.139,0.588,0.268,0.877,0.388
			c0.288,0.12,0.506,0.211,0.654,0.273c0.484,0.202,0.934,0.419,1.35,0.652s0.776,0.501,1.078,0.803
			c0.302,0.303,0.54,0.652,0.715,1.049c0.174,0.396,0.262,0.866,0.262,1.407c0,0.718-0.131,1.339-0.393,1.861
			c-0.262,0.522-0.618,0.957-1.068,1.304s-0.984,0.602-1.602,0.765C80.416,87.745,79.745,87.827,79.019,87.827z"/>
		<path fill="#00807D" d="M99.208,76.831v7.803h2.015v3.193h-2.015h-1.673H95.5h-0.161h-2.015v-3.193h2.015v-7.803h-2.015v-3.175
			h2.015h3.869h2.015v3.175H99.208z"/>
		<path fill="#00807D" d="M125.984,79.778l-5.077,7.652c-0.39,0.126-0.806,0.224-1.249,0.293s-0.9,0.104-1.37,0.104
			c-0.591,0-1.155-0.057-1.692-0.17c-0.874-0.177-1.676-0.479-2.408-0.907c-0.732-0.428-1.367-0.947-1.904-1.559
			c-0.538-0.61-0.958-1.301-1.259-2.069c-0.302-0.768-0.454-1.587-0.454-2.456c0-1.02,0.205-1.958,0.615-2.814
			c0.409-0.856,0.97-1.597,1.682-2.221c0.712-0.623,1.538-1.108,2.479-1.454c0.94-0.347,1.947-0.521,3.022-0.521
			c0.604,0,1.202,0.066,1.793,0.199c0.591,0.132,1.159,0.324,1.703,0.576c0.544,0.252,1.055,0.561,1.531,0.926
			s0.89,0.774,1.239,1.228c0.457,0.593,0.786,1.223,0.987,1.89h-2.357h-1.793c-0.35-0.566-0.799-1.004-1.35-1.313
			c-0.551-0.309-1.168-0.463-1.854-0.463c-0.591,0-1.132,0.107-1.622,0.321c-0.49,0.215-0.91,0.501-1.259,0.86
			c-0.349,0.358-0.621,0.78-0.816,1.266c-0.195,0.485-0.292,0.992-0.292,1.521c0,0.555,0.094,1.08,0.282,1.578
			s0.453,0.933,0.796,1.304c0.342,0.371,0.759,0.668,1.25,0.888c0.49,0.221,1.044,0.331,1.662,0.331c0.08,0,0.154-0.003,0.221-0.01
			c0.067-0.006,0.134-0.01,0.202-0.01l1.592-2.173h-2.861v-2.796h4.896H125.984z"/>
		<path fill="#00807D" d="M139.081,79.192l-0.061,0.038l0.101,8.597h-3.687V73.656h3.324l5.843,8.881l0.041-0.02l-0.162-8.861h3.707
			v14.171h-3.364L139.081,79.192z"/>
	</g>
</g>
<path fill="#4F4F4F" d="M61.147,73.169h-9.252 M61.72,73.836 M51.227,73.169H17.839v14.213h-0.573V73.55l-7.44,10.207l-0.382-0.286
	l7.536-10.302H7.727v14.213H7.345V73.645l-3.721,5.057l-0.477-0.19l3.911-5.342h-6.01v-0.383h6.296V13.642H0v-0.572h7.345
	L4.483,9.254l0.381-0.286l2.48,3.338V0h0.382v12.974l0.19,0.096h9.349L9.826,2.862l0.381-0.287l7.059,9.73V0h0.573v12.974
	l0.095,0.096h33.292V0h0.382v12.592l7.345-9.921l0.382,0.286l-7.44,10.112h9.252V0h0.573v12.497l2.576-3.529l0.381,0.286
	l-2.861,3.815h5.056v0.572H61.72v59.145h5.342v0.383h-5.247H51.227z M7.917,13.928l-0.19,0.095v0.669l0.572-0.287L7.917,13.928z
	 M8.585,14.786l-0.858,0.477v0.668l1.145-0.668L8.585,14.786z M9.158,15.645l-1.431,0.764v0.667l1.813-0.953L9.158,15.645z
	 M9.73,16.504l-2.003,1.145v0.667l2.384-1.335L9.73,16.504z M10.398,17.267l-2.671,1.526v0.668l3.052-1.717L10.398,17.267z
	 M10.97,18.125l-3.243,1.908v0.668l3.625-2.1L10.97,18.125z M11.638,18.983l-3.911,2.194v0.668l4.197-2.385L11.638,18.983z
	 M12.21,19.842l-4.483,2.576v0.668l4.865-2.767L12.21,19.842z M12.783,20.605l-5.056,2.957v0.668l5.437-3.053L12.783,20.605z
	 M13.451,21.464l-5.724,3.339v0.668l6.105-3.529L13.451,21.464z M14.023,22.323l-6.296,3.624v0.668l6.677-3.816L14.023,22.323z
	 M14.69,23.181l-6.963,4.007v0.668l7.25-4.197L14.69,23.181z M15.263,24.04l-7.536,4.293V29l7.918-4.483L15.263,24.04z
	 M15.931,24.803l-8.204,4.771v0.667l8.49-4.96L15.931,24.803z M16.503,25.661l-8.776,5.057v0.667l9.158-5.246L16.503,25.661z
	 M17.266,26.807l-0.19-0.286l-9.349,5.437v0.669l9.539-5.534V26.807z M17.266,27.569l-9.539,5.532v0.669l9.539-5.533V27.569z
	 M17.266,28.81l-9.539,5.532v0.668l9.539-5.532V28.81z M17.266,29.954l-9.539,5.533v0.667l9.539-5.532V29.954z M17.266,31.194
	l-9.539,5.533v0.667l9.539-5.532V31.194z M17.266,32.339l-9.539,5.533v0.668l9.539-5.533V32.339z M17.266,33.579l-9.539,5.533v0.668
	l9.539-5.533V33.579z M17.266,34.724l-9.539,5.533v0.668l9.539-5.533V34.724z M17.266,35.964l-9.539,5.533v0.668l9.539-5.533V35.964
	z M17.266,37.108l-9.539,5.533v0.668l9.539-5.533V37.108z M17.266,38.35l-9.539,5.532v0.668l9.539-5.533V38.35z M17.266,39.494
	l-9.539,5.532v0.668l9.539-5.533V39.494z M17.266,40.733l-9.539,5.533v0.668l9.539-5.533V40.733z M17.266,41.878l-9.539,5.533v0.668
	l9.539-5.532V41.878z M17.266,43.118l-9.539,5.533v0.668l9.539-5.533V43.118z M17.266,44.264l-9.539,5.533v0.667l9.539-5.533V44.264
	z M17.266,45.504l-9.539,5.532v0.668l9.539-5.533V45.504z M17.266,46.648l-9.539,5.532v0.669l9.539-5.534V46.648z M17.266,47.889
	l-9.539,5.532v0.669l9.539-5.533V47.889z M17.266,49.033l-9.539,5.533v0.667l9.539-5.532V49.033z M17.266,50.273l-9.539,5.533v0.667
	l9.539-5.532V50.273z M17.266,51.418l-9.539,5.533v0.667l9.539-5.532V51.418z M17.266,52.658l-9.539,5.533v0.668l9.539-5.533V52.658
	z M17.266,53.803l-9.539,5.533v0.668l9.539-5.533V53.803z M17.266,55.043l-9.539,5.532v0.669l9.539-5.533V55.043z M17.266,56.188
	l-9.539,5.533v0.668l9.539-5.533V56.188z M17.266,57.428l-9.539,5.533v0.667l9.539-5.532V57.428z M17.266,59.24v-0.667l-9.539,5.532
	v0.668l9.539-5.438V59.24z M16.694,60.194l-8.967,5.151v0.668l8.013-4.675L16.694,60.194z M15.167,62.197l-7.44,4.293v0.668
	l6.487-3.721L15.167,62.197z M13.641,64.297L7.727,67.73v0.668l4.96-2.861L13.641,64.297z M12.115,66.395l-4.388,2.481v0.667
	l3.434-1.907L12.115,66.395z M10.589,68.494l-2.862,1.622v0.667l1.908-1.145L10.589,68.494z M9.063,70.593L7.727,71.26v0.669
	l0.381-0.191L9.063,70.593z M17.266,67.636v-0.668L8.49,72.023l-0.477,0.763H8.49L17.266,67.636z M8.49,13.642l-0.19,0.096
	l0.381,0.477l1.049-0.572H8.49z M10.589,13.642L8.967,14.5l0.381,0.573l2.481-1.432H10.589z M17.266,65.728l-7.25,4.197l-0.858,1.24
	l8.108-4.771V65.728z M17.266,68.78v-0.668l-7.918,4.674h1.241L17.266,68.78z M12.688,13.642L9.54,15.358l0.381,0.478l3.911-2.194
	H12.688z M14.69,13.642l-4.483,2.576c0.096,0.19,0.191,0.286,0.286,0.477l5.438-3.053H14.69z M17.266,64.583l-5.724,3.243
	l-0.858,1.24l6.582-3.816V64.583z M17.266,13.928v-0.286H16.79l-6.01,3.434l0.382,0.478L17.266,13.928z M17.266,15.168V14.5
	l-5.819,3.435l0.286,0.477C13.546,17.362,15.454,16.218,17.266,15.168z M17.266,70.021v-0.668l-5.819,3.434h1.145L17.266,70.021z
	 M17.266,16.313v-0.668l-5.247,3.053l0.381,0.478L17.266,16.313z M17.266,63.343l-4.197,2.48l-0.858,1.145l5.056-2.957V63.343z
	 M17.266,17.553v-0.668l-4.674,2.671l0.381,0.478L17.266,17.553z M17.266,18.697V18.03l-4.006,2.385l0.381,0.477L17.266,18.697z
	 M17.266,71.165v-0.668l-3.815,2.289h1.24L17.266,71.165z M17.266,62.197l-2.671,1.526l-0.858,1.24l3.529-2.099V62.197z
	 M17.266,19.938v-0.667l-3.434,2.002l0.382,0.478L17.266,19.938z M17.266,21.083v-0.668L14.5,22.036l0.286,0.572L17.266,21.083z
	 M17.266,22.323v-0.669l-2.194,1.24l0.381,0.478L17.266,22.323z M17.266,60.958l-1.145,0.668l-0.858,1.239l2.003-1.239V60.958z
	 M17.266,72.405v-0.668l-1.717,1.049h1.145L17.266,72.405z M17.266,23.468v-0.669l-1.621,0.955l0.381,0.477
	C16.408,23.944,16.885,23.754,17.266,23.468z M17.266,24.707V24.04l-0.954,0.572l0.381,0.477L17.266,24.707z M17.266,60.1
	l-0.477,0.667l0.477-0.286V60.1z M17.266,25.852v-0.667l-0.381,0.286l0.381,0.477V25.852z M18.029,14.022l-0.19,0.191v0.668
	l0.572-0.286L18.029,14.022z M18.602,14.882l-0.763,0.477v0.764l1.145-0.764L18.602,14.882z M19.27,15.74l-1.431,0.858v0.668
	l1.717-1.049L19.27,15.74z M19.842,16.599l-2.003,1.146v0.763l2.385-1.432L19.842,16.599z M20.51,17.457l-2.671,1.526v0.668
	l2.957-1.717L20.51,17.457z M21.082,18.221c-1.049,0.668-2.194,1.24-3.243,1.907v0.764l3.625-2.194L21.082,18.221z M21.654,19.079
	l-3.815,2.289v0.668l4.197-2.48L21.654,19.079z M22.322,19.938l-4.483,2.576v0.763l4.865-2.861L22.322,19.938z M22.895,20.797
	l-5.056,2.957v0.667l5.438-3.148L22.895,20.797z M23.563,21.56l-5.724,3.339v0.763l6.009-3.529L23.563,21.56z M24.516,22.895
	l-0.381-0.477l-6.296,3.721v0.477l0.095,0.096L24.516,22.895z M29.19,43.118L17.839,27.474v31.195L29.19,43.118z M17.839,72.118
	l16.312-22.227L29.477,43.5L17.839,59.432V72.118z M50.94,72.786L34.438,50.273L17.934,72.786H50.94z M25.089,23.754l-0.382-0.478
	l-6.583,3.815l0.382,0.478L25.089,23.754z M48.747,16.504l0.667-0.859l0.859-1.145l0.667-0.858H18.22l16.313,22.227L47.22,18.602
	l0.667-0.857L48.747,16.504z M25.756,24.612l-0.382-0.478l-6.582,3.816l0.287,0.477L25.756,24.612z M26.329,25.471l-0.382-0.477
	l-6.582,3.815l0.381,0.477L26.329,25.471z M26.901,26.329l-0.286-0.572l-6.678,3.816l0.381,0.571L26.901,26.329z M27.569,27.092
	l-0.381-0.477l-6.582,3.815l0.381,0.478L27.569,27.092z M28.141,27.951l-0.286-0.478l-6.678,3.816l0.382,0.477L28.141,27.951z
	 M28.809,28.81l-0.382-0.477l-6.582,3.815l0.287,0.478L28.809,28.81z M29.382,29.668L29,29.191l-6.583,3.815l0.382,0.477
	L29.382,29.668z M30.049,30.431l-0.382-0.477l-6.582,3.816l0.286,0.571L30.049,30.431z M30.622,31.29l-0.381-0.478l-6.583,3.815
	l0.382,0.478L30.622,31.29z M31.194,32.148l-0.286-0.478l-6.678,3.816l0.381,0.477L31.194,32.148z M31.861,33.007L31.48,32.53
	l-6.582,3.815l0.381,0.478L31.861,33.007z M32.434,33.865l-0.381-0.572l-6.583,3.911l0.382,0.477L32.434,33.865z M33.102,34.628
	l-0.382-0.477l-6.583,3.816l0.287,0.477L33.102,34.628z M33.674,35.487l-0.382-0.478l-6.582,3.815l0.382,0.478L33.674,35.487z
	 M34.151,36.441l0.096-0.191l-0.286-0.382l-6.582,3.816l0.286,0.477L34.151,36.441z M32.625,38.54l0.859-1.241l-5.533,3.244
	l0.381,0.478L32.625,38.54z M31.099,40.639l0.858-1.24l-3.434,1.908l0.381,0.571L31.099,40.639z M29.572,42.642l0.858-1.145
	l-1.24,0.668L29.572,42.642z M36.727,39.685l-0.382-0.478l-6.392,3.721l-0.095,0.19l0.287,0.382L36.727,39.685z M37.395,40.543
	l-0.382-0.478l-6.583,3.816l0.286,0.477L37.395,40.543z M35.773,38.35l-4.293,2.479l-0.954,1.24l5.628-3.244L35.773,38.35z
	 M37.967,41.401l-0.381-0.572l-6.582,3.911l0.381,0.478L37.967,41.401z M38.54,42.165l-0.286-0.478l-6.678,3.816l0.381,0.477
	L38.54,42.165z M35.201,37.49l-2.194,1.335l-0.954,1.146l3.434-2.003L35.201,37.49z M39.207,43.022l-0.381-0.476l-6.583,3.815
	l0.381,0.477L39.207,43.022z M37.681,45.122l0.859-1.24l-5.724,3.339l0.381,0.477L37.681,45.122z M36.154,47.221l0.859-1.24
	l-3.53,2.099l0.286,0.478L36.154,47.221z M34.533,36.728l-0.954,1.24l1.335-0.764L34.533,36.728z M34.628,49.224l0.858-1.145
	l-1.431,0.764l0.382,0.572L34.628,49.224z M51.227,59.432L39.493,43.404l-0.667,1.05l-0.667,0.858l-0.096,0.096l-0.859,1.145h0.096
	l-0.667,0.858h-0.096l-0.859,1.24h0.096l-0.667,0.858H35.01l-0.191,0.382L51.227,72.31V59.432z M49.892,28.428l0.954-1.145
	L35.01,36.441l0.286,0.477L49.892,28.428z M51.227,26.521v-0.669l-15.167,8.776l-0.954,1.24L51.227,26.521z M48.365,30.526
	l0.954-1.145l-13.737,7.917l0.382,0.478L48.365,30.526z M46.839,32.626l0.954-1.241l-11.639,6.773l0.382,0.477L46.839,32.626z
	 M51.227,25.375v-0.668L37.585,32.53l-0.954,1.24L51.227,25.375z M45.313,34.724l0.954-1.24l-9.444,5.438l0.381,0.478L45.313,34.724
	z M43.786,36.823l0.954-1.24l-7.345,4.197l0.381,0.477L43.786,36.823z M42.26,38.825l0.954-1.145l-5.151,2.958l0.286,0.477
	L42.26,38.825z M51.227,24.135v-0.667l-12.115,6.963l-0.954,1.24L51.227,24.135z M40.733,40.925l0.859-1.24l-2.958,1.813
	l0.382,0.477L40.733,40.925z M39.493,42.642l0.573-0.858l-0.859,0.477L39.493,42.642z M51.227,22.99v-0.667l-10.589,6.104
	l-0.954,1.146L51.227,22.99z M51.227,58.669v-31.1l-0.286,0.286l-0.572,0.858l-0.955,1.24l-0.572,0.858h-0.096l-0.859,1.24
	l-0.572,0.858H47.22l-0.858,1.24v-0.095l-0.572,0.858l-0.096,0.095l-0.858,1.145l-0.572,0.859h-0.096l-0.858,1.24l-0.572,0.858
	h-0.095l-0.859,1.239l-0.572,0.859h-0.095l-0.859,1.24v-0.096l-0.477,0.667L51.227,58.669z M51.227,21.75v-0.667l-9.063,5.246
	l-0.954,1.24L51.227,21.75z M51.227,20.605v-0.668L43.69,24.23l-0.954,1.24L51.227,20.605z M51.227,19.365v-0.668l-6.01,3.435
	l-0.859,1.24L51.227,19.365z M51.227,18.221v-0.668l-4.483,2.575l-0.859,1.145C47.698,20.224,49.414,19.271,51.227,18.221z
	 M51.227,16.98v-0.668L48.27,18.03l-0.859,1.24L51.227,16.98z M51.227,15.836v-0.668l-1.431,0.763l-0.859,1.24L51.227,15.836z
	 M51.227,14.596v-0.573l-0.763,1.051L51.227,14.596z M60.671,13.928l0.19-0.286h-0.858l-8.395,4.77v0.668L60.671,13.928z
	 M57.905,13.642l-6.296,3.625v0.668l7.536-4.293H57.905z M55.901,13.642l-4.292,2.385v0.668l5.437-3.053H55.901z M53.803,13.642
	l-2.194,1.24v0.667l3.434-1.907H53.803z M51.799,13.642h-0.19v0.668l1.335-0.668H51.799z M59.145,16.026l0.858-1.24l-8.395,4.865
	v0.668L59.145,16.026z M57.619,18.125l0.859-1.24l-6.869,3.912v0.667L57.619,18.125z M56.092,20.128l0.859-1.145l-5.342,3.053v0.668
	L56.092,20.128z M54.47,22.228l0.955-1.24l-3.816,2.193v0.668L54.47,22.228z M61.147,21.941v-0.669l-9.252,5.438l-0.286,0.19v0.572
	L61.147,21.941z M61.147,23.181v-0.763l-9.539,5.533v0.667L61.147,23.181z M52.944,24.325c0.286-0.381,0.668-0.857,0.955-1.239
	l-2.29,1.335v0.668L52.944,24.325z M61.147,24.325v-0.667l-9.539,5.533v0.667L61.147,24.325z M61.147,25.565v-0.763l-9.539,5.533
	v0.668L61.147,25.565z M51.609,26.139l0.763-0.954l-0.763,0.381V26.139z M61.147,26.711v-0.668l-9.539,5.532v0.669L61.147,26.711z
	 M61.147,27.951v-0.764l-9.539,5.533v0.668L61.147,27.951z M61.147,29.096v-0.668l-9.539,5.533v0.667L61.147,29.096z M61.147,30.336
	v-0.763l-9.539,5.532v0.667L61.147,30.336z M61.147,31.48v-0.668l-9.539,5.533v0.668L61.147,31.48z M61.147,32.721v-0.764
	l-9.539,5.533v0.668L61.147,32.721z M61.147,33.865v-0.668l-9.539,5.533v0.668L61.147,33.865z M61.147,35.105v-0.764l-9.539,5.534
	v0.667L61.147,35.105z M61.147,36.25v-0.667l-9.539,5.532v0.668L61.147,36.25z M61.147,37.49v-0.763l-9.539,5.532v0.668
	L61.147,37.49z M61.147,38.635v-0.667L51.609,43.5v0.668L61.147,38.635z M61.147,39.876v-0.764l-9.539,5.532v0.668L61.147,39.876z
	 M61.147,41.021v-0.669l-9.539,5.533v0.668L61.147,41.021z M61.147,42.26v-0.763l-9.539,5.533v0.667L61.147,42.26z M61.147,43.404
	v-0.667l-9.539,5.533v0.667L61.147,43.404z M61.147,44.645v-0.763l-9.539,5.533v0.668L61.147,44.645z M61.147,45.79v-0.668
	l-9.539,5.532v0.669L61.147,45.79z M61.147,47.03v-0.764L51.609,51.8v0.668L61.147,47.03z M61.147,48.175v-0.668l-9.539,5.533v0.667
	L61.147,48.175z M61.147,49.415v-0.764l-9.539,5.533v0.668L61.147,49.415z M61.147,50.56v-0.668l-9.539,5.533v0.668L61.147,50.56z
	 M61.147,51.8v-0.764l-9.539,5.533v0.668L61.147,51.8z M61.147,52.944v-0.668l-9.539,5.533v0.668L61.147,52.944z M61.147,54.185
	v-0.764l-9.539,5.533v0.286l0.286,0.286L61.147,54.185z M51.704,60.1l-0.095,0.095v0.668l0.477-0.191L51.704,60.1z M52.276,60.958
	l-0.667,0.381v0.668l1.049-0.572L52.276,60.958z M52.944,61.816l-1.335,0.763v0.668l1.621-0.954L52.944,61.816z M53.516,62.675
	l-1.907,1.049v0.668l2.29-1.24L53.516,62.675z M54.185,63.533l-2.576,1.431v0.668l2.861-1.621L54.185,63.533z M54.756,64.297
	l-3.147,1.813v0.667l3.529-2.003L54.756,64.297z M55.329,65.154l-3.72,2.195v0.667l4.102-2.385L55.329,65.154z M55.997,66.014
	l-4.388,2.48v0.667l4.77-2.671L55.997,66.014z M56.569,66.872l-4.96,2.861v0.669l5.342-3.053L56.569,66.872z M57.237,67.636
	l-5.628,3.243v0.668l5.914-3.34L57.237,67.636z M58.19,68.971l-0.381-0.477l-6.2,3.624v0.668h0.095L58.19,68.971z M61.147,55.329
	v-0.668l-9.062,5.247l0.381,0.478L61.147,55.329z M61.147,20.797v-0.764l-7.726,4.579l-0.955,1.145L61.147,20.797z M58.763,69.829
	l-0.286-0.477l-5.915,3.434h1.24L58.763,69.829z M61.147,56.569v-0.763l-8.395,4.96l0.287,0.478L61.147,56.569z M61.147,57.714
	v-0.667l-7.822,4.483l0.381,0.571L61.147,57.714z M61.147,19.556v-0.667l-6.2,3.625l-0.955,1.24L61.147,19.556z M61.147,58.954
	v-0.763l-7.154,4.197l0.286,0.477L61.147,58.954z M61.147,60.1v-0.668l-6.582,3.815c0.096,0.19,0.286,0.286,0.382,0.477L61.147,60.1
	z M59.431,70.688l-0.382-0.477l-4.388,2.575h1.239L59.431,70.688z M61.147,61.339v-0.764l-6.009,3.53l0.381,0.478L61.147,61.339z
	 M61.147,18.411v-0.763l-4.674,2.767l-0.954,1.239L61.147,18.411z M61.147,62.484v-0.668l-5.342,3.147l0.382,0.478L61.147,62.484z
	 M61.147,63.724v-0.763l-4.769,2.767L56.76,66.3L61.147,63.724z M60.003,71.547l-0.382-0.478l-2.957,1.717h1.241L60.003,71.547z
	 M61.147,17.171v-0.667L58,18.315l-0.954,1.24L61.147,17.171z M61.147,64.868v-0.667l-4.102,2.385
	c0.096,0.19,0.191,0.286,0.286,0.478L61.147,64.868z M61.147,66.109v-0.764l-3.529,2.099L58,67.921L61.147,66.109z M61.147,67.254
	v-0.668l-2.957,1.717l0.382,0.478L61.147,67.254z M61.147,16.026v-0.764l-1.621,1.05l-0.954,1.145L61.147,16.026z M60.671,72.405
	l-0.382-0.572l-1.526,0.953h1.24L60.671,72.405z M61.147,68.494V67.73l-2.29,1.431l0.383,0.478L61.147,68.494z M61.147,69.639
	v-0.668l-1.716,0.954l0.381,0.478L61.147,69.639z M61.147,14.786v-0.668l-0.095,0.096l-0.954,1.145L61.147,14.786z M61.147,70.879
	v-0.763l-1.049,0.667c0.095,0.19,0.191,0.286,0.286,0.477L61.147,70.879z M61.147,72.023v-0.668l-0.476,0.287l0.381,0.476
	L61.147,72.023z"/>
<rect fill="none" width="179.333" height="87.827"/>
</svg>
